<svg aria-hidden="true" style="position:absolute;width:0;height:0;overflow:hidden" xmlns="http://www.w3.org/2000/svg"><defs>
<symbol id="icon-dots-6" viewBox="0 0 37 32"><path fill="#fff" style="fill:var(--color1, #fff)" d="M33.5 16c0 8.8-6.8 16-15.3 16S3 24.8 3 16 9.8 0 18.2 0s15.3 7.2 15.3 16z"/></symbol>
<symbol id="icon-menu-20-12" viewBox="0 0 46 32"><path fill="none" stroke="#d41443" style="stroke:var(--color2, #d41443)" stroke-width="2.3" d="M0 2.3h45.7M0 16h45.7M0 29.7h45.7"/></symbol>
<symbol id="icon-arrow-4-8" viewBox="0 0 26 32"><path fill="none" stroke="#d41443" style="stroke:var(--color2, #d41443)" stroke-linejoin="round" stroke-linecap="round" stroke-width="6.4" d="M5.2 3.2 19.3 16 5.2 28.8"/></symbol>
<symbol id="icon-quotes" viewBox="0 0 49 32"><path fill="#e1e1e1" style="fill:var(--color3, #e1e1e1)" d="M35.8 0a12.6 12.6 0 0 1 10.8 6 15.3 15.3 0 0 1-.4 14.6 66 66 0 0 1-6.2 7.2l-4.6 4.2-3.2-4.8a24 24 0 0 0 6-4.7c1.7-1.8 2.5-3.5 2.5-5a3 3 0 0 0-.5-1.9c-1.7 1-3.6 1.6-5.6 1.6a8 8 0 0 1-4.3-1.2 9 9 0 0 1-3.3-3.1 6.8 6.8 0 0 1-1.3-4c0-1.4.5-2.9 1.5-4.3A11 11 0 0 1 35.8 0zM10 0a12.6 12.6 0 0 1 10.8 6c1.1 2 1.7 4.3 1.7 7a14.8 14.8 0 0 1-3.5 9.7 37.8 37.8 0 0 1-3.6 3.9L9.7 32l-3.2-4.8a24 24 0 0 0 6-4.7c1.7-1.8 2.5-3.5 2.5-5a3 3 0 0 0-.6-1.9c-1.6 1-3.5 1.6-5.6 1.6A8 8 0 0 1 4.6 16a9 9 0 0 1-3.3-3.1 6.8 6.8 0 0 1-1.3-4C0 7.6.5 6 1.4 4.7s2.3-2.5 3.8-3.4A9.9 9.9 0 0 1 10 0z"/></symbol>
<symbol id="icon-facebook-34" viewBox="0 0 32 32"><path fill="#fea5bb" style="fill:var(--color4, #fea5bb)" d="M16 32a16 16 0 1 0 0-32 16 16 0 0 0 0 32z"/><path fill="#fff" style="fill:var(--color1, #fff)" d="M20.4 16h-2.6v9.6h-4V16H12v-3.4h1.9v-2.2c0-1.5.7-4 4-4h2.9v3.3h-2.1c-.4 0-.9.2-.9 1v1.9h3l-.4 3.4z"/></symbol>
<symbol id="icon-telegram-34" viewBox="0 0 32 32"><path fill="#fea5bb" style="fill:var(--color4, #fea5bb)" d="M32 16a16 16 0 1 1-32 0 16 16 0 0 1 32 0z"/><path fill="#fff" style="fill:var(--color1, #fff)" d="m12.9 18.4-.4 4.1c.5 0 .7-.1 1-.4l2-1.9 4.5 3c.8.5 1.4.3 1.6-.6l2.9-12.7c.2-1.1-.5-1.6-1.2-1.3l-17 6.1C5 15.1 5 15.7 6 16l4.4 1.3 10-6c.6-.2 1 0 .6.2L13 18.4z"/></symbol>
<symbol id="icon-github-34" viewBox="0 0 32 32"><path fill="#fea5bb" style="fill:var(--color4, #fea5bb)" d="M32 16a16 16 0 1 1-32 0 16 16 0 0 1 32 0z"/><path fill="#fff" style="fill:var(--color1, #fff)" d="M16 6.6A9.4 9.4 0 0 0 6.6 16c0 4.4 3 8.4 7.2 9.4v-3.1h-1.2c-.6-.2-1-.6-1.3-1.1-.3-.4-.6-.8-1-.8l-.1-1c.8-.1 1.6.5 2 1.2.2.3.4.5.7.6h1c0-.8.3-1 .6-1.4-2.5-.4-3.4-1.7-3.8-2.7-.5-1.4-.3-3 .6-4.1v-.1c-.3-1.3.2-2.3.2-2.5.5.2.5-.1 2 .8l.3.2h.2a8 8 0 0 1 2-.3 8 8 0 0 1 2 .3h.2c1.9-1.2 1.8-.8 2.3-1 0 .2.5 1.2.1 2.5 0 .1 1.7 1.7.7 4.2-.4 1-1.3 2.3-3.8 2.7.3.5.7.7.7 1.7v4c4.1-1 7.2-5 7.2-9.5 0-5.2-4.2-9.4-9.4-9.4z"/></symbol>
<symbol id="icon-dots-12px" viewBox="0 0 32 32"><path fill="#d9d9d9" style="fill:var(--color5, #d9d9d9)" d="M32 16a16 16 0 1 1-32 0 16 16 0 0 1 32 0z"/></symbol>
<symbol id="icon-dots-4px" viewBox="0 0 32 32"><path fill="#c7133e" style="fill:var(--color6, #c7133e)" d="M32 16a16 16 0 1 1-32 0 16 16 0 0 1 32 0z"/></symbol>
<symbol id="icon-candy" viewBox="0 0 28 32"><path fill="#ffa5ba" style="fill:var(--color7, #ffa5ba);stroke:var(--color7, #ffa5ba)" stroke="#ffa5ba" stroke-width=".3" d="M.7 11.2c.6 2.7 1.9 5 4 7.1 1.8 1.9 3.4 3 6 4.2l1.2.6v8.4h1.7v-7.9h.2c.2.1.5.1.8 0h.1v8h1.7V23l1.2-.6c2.5-1.1 4.3-2.4 6-4.1 2.8-2.8 4.2-6 4.2-9.6 0-3.8-2-7-5.2-8-.7-.3-1-.3-2.3-.3M.7 11.2l13.6-8.3-.1-.1M.7 11.2a11.7 11.7 0 0 1 0-4.5C1.4 3.5 3.6 1 6.5.5M.7 11.2 6.5.5m13.8 0zm0 0H19l-1.2.4a10 10 0 0 0-3.2 1.6l-.3.3m0 0-.6-.4a9.4 9.4 0 0 0-5.4-2 15.6 15.6 0 0 0-1.7.1m7.7 2.3L6.5.5m6.7 3.7a9.8 9.8 0 0 0-2.5-1.5l-1.5-.4c-2-.4-3.5 0-4.8 1.2a6.7 6.7 0 0 0-1 1.1 25.8 25.8 0 0 0 1 .2c1.3.2 2.3.5 3.3 1S9.7 7 11.3 8c.6.5 1.6 1 2.6 1.6a38.8 38.8 0 0 1 2 1l.3.5.1.6.1 2.6a31.7 31.7 0 0 0 .2 2.6c.3.2.6.2.8 0l.1-.5v-1.7c0-1.2 0-1.9.2-2.4a1.7 1.7 0 0 1 .8-1l.6-.4c.3 0 .7 0 1.3-.2A16 16 0 0 0 26 9.2L26 9v-.6L26 6.7C25.2 4 22.9 2 20.5 2c-1.7 0-4 .8-5.3 2l-.5.5-.5.2-.5-.1-.5-.5zm-10 .4zm5.8 4a11.1 11.1 0 0 0-5.6-2.2 7 7 0 0 0-.9 0l-.1.5-.2.9v2c.3 2.9 1.6 5.3 4 7.7 2 1.8 4.4 3.3 7 4.2l1 .3.8-.3c2.6-.9 5-2.3 6.9-4a13 13 0 0 0 2.7-3.4 15.3 15.3 0 0 0 1.2-3h-.1l-.8.3c-1.2.4-3 .8-4.4 1h-.8l-.3.3-.1.6V15l-.1 2.3-.2.5c0 .2-.2.3-.3.4-.3.3-.5.5-.8.6l-.8.1c-.5 0-1 0-1.3-.3s-.6-.5-.9-1l-.1-.8a32 32 0 0 1-.1-4.1 4.8 4.8 0 0 0-.1-.7l-.3-.1-.7-.4c-1-.4-2.3-1.1-3.1-1.7L9 8.6zM2.5 6.4zm0 0z"/></symbol>
<symbol id="icon-fresh" viewBox="0 0 32 32"><path fill="#ffa5ba" style="fill:var(--color7, #ffa5ba)" d="M29.6 21.4a4.4 4.4 0 0 0-3.2 0c.1-.8.5-1.8 1.2-2.5a1 1 0 0 0-1.5-1.5 6.6 6.6 0 0 0-1.9 4 4 4 0 0 0-1-.2l1.9-9.9a1 1 0 0 0-1-1.2h-.3l.2-1.5c0-2-1-3.5-2.4-4a4.6 4.6 0 0 0-3.5 0c.1-1 .5-2 1.3-2.8A1 1 0 0 0 17.9.3a7 7 0 0 0-2 4.4c-.7-.4-1.6-.6-2.7-.4-1-1.5-2.6-2.3-4-1.9a4.6 4.6 0 0 0-3 2c-.4-1-.7-2-.4-3a1 1 0 0 0-2-.6 7 7 0 0 0 .6 4.8c-1 .1-2 .6-3 1.8-.6.8-.8 1.7-.6 2.7a1 1 0 0 0-.7 1.2L4 31.1c.1.5.6.9 1 .9h15.3c.5 0 1-.4 1-.9V31l1 .5a5 5 0 0 0 3 .1 5.3 5.3 0 0 0 3.1 0c2.4-1 3.6-4 3.6-6.3 0-1.9-.9-3.3-2.3-3.8zm-7-9.2c-.4 4.7-4.4 7.9-9.9 7.9s-9.5-3.2-10-8h20zM16 7.5a1 1 0 0 0 1.9 0s.3-.5.8-.8c.6-.4 1.3-.4 2.2-.1.8.3 1 1.5 1 2l-.3 1.5h-7.1c.2-1.2.1-2.5-.3-3.7.4 0 .7.1 1 .3.5.3.8.8.8.8zM3 8.7c.6-.7 1.3-1 2-1 .6 0 1 .2 1 .2.4.2.8.2 1.2 0 .3-.3.5-.6.4-1 0-.1 0-2 2-2.4.9-.2 1.6.7 2 1.1.7 1.3 1.1 3.2.7 4.5H3c-.2-.5-.2-1 0-1.4zM6 30l-2.2-11 .5.4c2.2 1.9 5.2 3 8.5 3s6.3-1.1 8.5-3l.2-.2-.4 2.3h-.1c-1.4.5-2.3 2-2.3 3.8 0 1.2.3 2.5 1 3.7l-.3 1H6zm21.7-.5c-1 .4-2 0-2 0a1 1 0 0 0-.7 0s-1 .4-2 0c-1.3-.5-2.2-2.5-2.1-4.1 0-.5 0-1.6.8-1.9l1-.2a2 2 0 0 1 1.7 1 1 1 0 0 0 1.9 0c.1-.2 1-1.4 2.7-.8.8.3.9 1.4.9 1.9 0 1.6-.9 3.6-2.2 4.1z"/></symbol>
<symbol id="icon-milk-shake" viewBox="0 0 32 32"><path fill="#ffa5ba" style="fill:var(--color7, #ffa5ba)" d="M8 .1c-.3.2-.5.6-.5 1 0 .9.2 1.6.7 2.3l.1.2L8 4l-.7 1.1c0 .4-.1 1.2 0 1.6a2.7 2.7 0 0 0 4.5 1.2l.3-.3.4.2.7.3.4.2V9c0 1 .2 1.7.8 2.3s1.5 1 2.3.8c.6-.1 1.1-.4 1.5-.8.6-.6.8-1.2.8-2.3v-.7l.4-.2.7-.3.4-.2.4.3c.4.4.7.6 1.2.7 1.4.4 2.8-.5 3.2-2V5.2c-.2-.5-.3-.6-.7-1l-.3-.5.2-.2c.4-.7.6-1.4.6-2.2 0-.5-.2-.9-.6-1l-.2-.2h-16l-.2.1zm14.8 2-.4.7c-.6 1-.6 1.2.3 2.1l.6.8c.2.4-.2 1-.7.9-.2 0-.4-.3-.8-.6-.8-.8-1-.9-1.7-.6l-2 1c-.6.1-.8.3-1 .6L17 8.4c0 1.2 0 1.4-.4 1.6H16c-.3-.2-.4-.4-.4-1.6V7c-.3-.3-.5-.5-1-.6-.6-.2-1.4-.5-1.8-.8-.4-.3-.8-.4-1-.3-.2 0-.4.2-1 .6l-.7.7c-.5.1-1-.5-.8-1L10 5c.8-.9.9-1.1.2-2.1L9.8 2h13zM6.2 13.2a1 1 0 0 0-.4.9c0 .2 3 16.9 3.2 17.2 0 .2.3.4.5.6l6.8.1 6.8-.1.6-.6L26.9 14a1 1 0 0 0-.5-.8l-.2-.1H6.5l-.3.1zm18.3 2.3-.7 2a7.8 7.8 0 0 1-6.8 4c-2.2.2-4.2-.3-5.8-1.3a7 7 0 0 1-3-4.7V15h16.3v.4zm-14.3 6.4c2.6 1.8 6.5 2.3 9.8 1.2 1.1-.4 2.3-1 3.2-1.7.3-.2.3-.2.3 0l-.8 4.2-.8 4.2v.1H10.7v-.1l-.8-4.2a280.2 280.2 0 0 0-.6-4.2l.8.5z"/></symbol>
<symbol id="icon-logo" viewBox="0 0 127 32"><path fill="#fff" style="fill:var(--color1, #fff)" d="M31.4 16.3C31.4 25 24.4 32 16 32S.6 25 .6 16.3C.6 7.7 7.6.6 16 .6s15.4 7 15.4 15.7z"/><path fill="#d41443" style="fill:var(--color2, #d41443)" d="M11.8.6C4.4 2.8 0 8.6 0 16c0 6 3 11.3 8.2 14 2.6 1.3 3 .3.6-1.6C7 27 6.7 26.4 6.7 24c0-1.7-.4-3-1-3.5-1.1-1-1.3-3.5-.1-4.4.5-.4 1-1.6 1-2.8.3-4.2 4.9-8.2 9.4-8.2s9.2 4 9.5 8.2c0 1.2.5 2.4 1 2.8 1.1 1 1 3.4-.2 4.4-.5.5-1 1.8-1 3.5 0 2.4-.2 3-2 4.4-2.7 2.1-2 3 1.1 1 4.3-2.6 7.4-8.3 7.4-13.3 0-10.2-10.5-18.4-20-15.5z"/><path fill="#d41443" style="fill:var(--color2, #d41443)" d="M12.7 8c-1.2.5-2.1 1.1-2.1 1.5 0 .7 3.4 2 5.4 2s5.5-1.3 5.5-2S17.5 7 16 7c-.6.1-2.1.5-3.2 1zM45.9 11.3c-1 .3-1.2 1.1-1.2 5.7v5.4h4.6l-.2-5.6c-.2-5.8-.5-6.2-3.2-5.5zM53.4 11.6c-2.1 1.2-3 2.6-3 5.4 0 3.7 2.1 5.5 6 5.3 2.5-.2 2.8-.4 3-2s0-1.7-2-1.6c-2 .2-2 0-2-2s0-2.3 2-2.1c1.5.1 2-.1 2.3-1.1.1-.6 0-1.5-.4-2-.9-.8-4.2-.8-6 .1zM61 11.7c-.1.5-.2 3 0 5.6l.1 4.8h4.2c3.9 0 4.2-.1 4.4-1.5.2-1.2 0-1.4-2-1.4-1.4 0-2.4-.3-2.4-.6 0-.4.9-.7 2-.7 1.4 0 1.9-.2 1.9-1.3s-.5-1.2-2-1.2c-1 0-1.9-.4-1.9-.7 0-.4.8-.6 1.9-.6 1.8 0 3-1.4 2.2-2.6-.6-1-8-.8-8.4.2zM74 11.5c-2.1.9-3 2.3-3 5-.1 4.6 1.8 6.2 6.6 5.8 1.9-.1 2.2-.5 2.2-1.8 0-1.4-.3-1.6-2-1.4-1.6.1-2.2 0-2.5-1.1-.6-2 .6-3.6 2.7-3.6 1.2 0 1.9-.4 2-1.2.4-2-2.9-3-6-1.7zM82 11.3c-.4.2-.6 2.8-.6 5.8v5.4l2-.2c1.7-.1 2.2-.6 2.6-1.8l.4-1.6.5 1.7c.4 1.5.8 1.8 2.5 1.8 2.8 0 3-.4 2-2.7-.8-1.4-1-2-.4-2.6.8-.8.9-3.7.1-4.9-.6-1-8.3-1.8-9.2-1zm5.2 3.4c0 .7-.3 1.3-.7 1.3-.3 0-.6-.6-.6-1.3s.3-1.3.6-1.3c.4 0 .7.6.7 1.3zM93.4 11.3c-.2.2-.4 2.8-.4 5.8v5.3h4.2c4 0 4.2 0 4.2-1.6 0-1.3-.4-1.6-2-1.6-1 0-1.9-.3-1.9-.6 0-.4.7-.7 1.6-.7 1.2 0 1.6-.3 1.6-1.3s-.4-1.2-1.6-1.2c-.9 0-1.6-.4-1.6-.7 0-.4.9-.6 2-.6 1.5 0 1.9-.3 1.9-1.6 0-1.6-.2-1.6-3.8-1.6-2 0-4 .2-4.2.4zM106.5 11.3c-1.2.3-4.2 8.8-3.6 10.2.5 1.3 3.4 1.2 4.2-.2.6-1 .6-1 1.8 0 1.5 1.3 4.7 1.5 4.7.3 0-.4-.6-3-1.5-5.6-1.3-4.2-1.7-4.8-3-5-1 0-2 .1-2.7.3zm1.8 5.8c-.2.6-.4.2-.4-.8s.2-1.5.4-1.1V17zM115.7 11.3c-.6.2-.8 2-.8 5.7v5.4h1.9c1.6 0 1.9-.3 2.1-1.8.3-1.6.3-1.6.8-.3.3.8 1 1.5 1.4 1.5.5 0 1.2-.7 1.5-1.5.5-1.3.6-1.3.6.4 0 1.6.2 1.8 2 1.6l2-.2.1-5.3c.1-5 0-5.3-1.3-5.7-2-.5-3.8.7-4.4 3.1l-.4 2.1-.7-2.2c-1-3-2.3-3.8-4.8-2.8zM9 12c-.2.2-.4 1-.4 1.9 0 1.5 0 1.5 7.4 1.5s7.4 0 7.4-1.5c0-2.2-.5-2.4-2.6-1.4a12.9 12.9 0 0 1-9.5 0c-1-.5-2-.7-2.3-.5zM7.1 17.7c-1 1 .8 1.5 5.8 1.5h5.4v2.3c0 1.2.3 2.2.6 2.2.4 0 .7-1 .7-2.2 0-2.1.1-2.2 2.6-2.4 1.4-.1 2.5-.5 2.5-.9 0-.7-16.8-1.2-17.6-.5z"/><path fill="#d41443" style="fill:var(--color2, #d41443)" d="M8.6 23.3c0 3.5 1.3 4.2 7.4 4.2s7.4-.7 7.4-4.2c0-1.5-.3-2.2-1-2.2-.5 0-.9.6-.9 1.6 0 3.6-4.9 3.9-5.6.4-.3-2-.5-2-3.8-2H8.6v2.2zM12.6 30.5c.4 2.1 7 2 7 0 0-.8-.9-1-3.6-1-3 0-3.6.2-3.4 1z"/></symbol>
<symbol id="icon-arrow-right" viewBox="0 0 32 32"><path d="M19.414 27.414l10-10c0.781-0.781 0.781-2.047 0-2.828l-10-10c-0.781-0.781-2.047-0.781-2.828 0s-0.781 2.047 0 2.828l6.586 6.586h-19.172c-1.105 0-2 0.895-2 2s0.895 2 2 2h19.172l-6.586 6.586c-0.39 0.39-0.586 0.902-0.586 1.414s0.195 1.024 0.586 1.414c0.781 0.781 2.047 0.781 2.828 0z"></path></symbol>
</defs></svg>